<svg viewBox="0 0 1098 122.267" xmlns="http://www.w3.org/2000/svg" xmlns:xlink="http://www.w3.org/1999/xlink"><style>:root&gt;svg{display:none}:root&gt;svg:target{display:block}</style><svg fill="none" viewBox="0 0 1098 119" id="css--zaryad" xmlns="http://www.w3.org/2000/svg"><path d="M569.689 1h99.834l-20.922 44.316c-8.921 16.867-35.532 29.441-70.143 29.441H504.93l-20.46 43.09h-56.3l34.611-72.991h129.83l6.305-13.188H469.241C477.548 14.188 504.621 1 540 1h29.689zm313.495 0H753.509c-35.38 0-62.452 13.188-70.759 30.668h129.675l-6.308 13.188H676.445l-14.153 29.901h56.147l-94.143 43.09h95.833l65.685-30.209-14.305 30.209c34.608 0 61.222-12.574 70.143-29.442l20.612-43.549 6.308-13.188 3.537-7.667L883.184 1zM142.673 1h99.678l-23.843 50.603-31.38 6.593 24.15 8.28-10.152 21.469C192.512 105.119 165.592 118 130.674 118H1l20.459-43.089 49.993 13.187h73.528l6.307-13.187H77.759L29.304 58.196 91.756 45.01h73.529l6.306-13.187H98.063L35.764 45.009c.462-1.073 2-4.293 6.307-13.187C50.378 14.34 77.451 1.154 112.83 1.154L142.673 1zm712.822 116.847l34.611-72.991h56.299l-20.303 43.089h73.528l26.61-56.277H896.569C907.644 10.508 938.101 1 967.325 1H1097l-41.23 86.945h27.54c-8.62 17.021-35.53 29.902-70.45 29.902H855.495zm-640.986 0l34.61-72.838h129.828l6.308-13.187H255.426c8.306-17.481 35.379-30.668 70.758-30.668h129.675l-34.611 72.99s2-4.14-6.304 13.188c-8.307 17.48-35.38 30.515-70.608 30.668l20.458-43.089h-73.527L270.808 118h-56.299v-.153z" stroke="#333"/></svg><svg fill="none" viewBox="0 0 19 18" id="sprite--diagrama" xmlns="http://www.w3.org/2000/svg"><path d="M.5 17.5v-13h4v13h-4zm7 0v-9h4v9h-4zm7 0V.5h4v17h-4z" stroke="#BCBCBC"/></svg><svg fill="none" viewBox="0 0 261 28" id="sprite--footer-logo" xmlns="http://www.w3.org/2000/svg"><path fill-rule="evenodd" clip-rule="evenodd" d="M135.427.5h23.774l-4.982 10.227c-2.125 3.892-8.462 6.794-16.704 6.794h-17.51l-4.872 9.944h-13.407l8.242-16.844h30.917l1.502-3.044h-30.881C113.485 3.543 119.932.5 128.357.5h7.07zm74.655 0h-30.88c-8.426 0-14.873 3.043-16.851 7.077h30.881l-1.503 3.044H160.85l-3.371 6.9h13.371l-22.419 9.944h22.821l15.643-6.972-3.407 6.972c8.241 0 14.579-2.902 16.704-6.795l4.908-10.05 1.503-3.043.842-1.769L210.082.5zM33.738.5h23.737l-5.678 11.678-7.473 1.521 5.751 1.911-2.417 4.954C45.606 24.527 39.196 27.5 30.88 27.5H0l4.872-9.944L16.777 20.6h17.51l1.502-3.044H18.28L6.74 13.7l14.873-3.043h17.51l1.501-3.043h-17.51L8.28 10.656c.11-.248.476-.99 1.502-3.043C11.759 3.579 18.206.535 26.63.535L33.738.5zm169.75 26.965l8.242-16.844h13.408l-4.835 9.943h17.509l6.337-12.987H213.27C215.907 2.694 223.16.5 230.119.5H261l-9.817 20.064h6.557c-2.052 3.928-8.462 6.9-16.777 6.9h-37.475zm-152.643 0l8.242-16.809h30.917l1.502-3.043H60.589C62.567 3.579 69.014.535 77.439.535h30.881l-8.243 16.844s.477-.955-1.501 3.044c-1.978 4.034-8.425 7.042-16.814 7.077l4.871-9.944h-17.51l-4.87 9.944H50.845v-.035z" fill="#333"/></svg><svg fill="none" viewBox="0 0 132 32" id="sprite--imperium" xmlns="http://www.w3.org/2000/svg"><path d="M35.761 23.126c1.611 0 2.45-.49 2.45-1.449 0-.958-.839-1.448-2.45-1.448h-6.399v2.897h6.4zm-6.399 8.644h-2.927V17.355h9.803c3.245 0 4.901 1.426 4.901 4.322 0 2.875-1.656 4.323-4.901 4.323h-6.876v5.77zm-26.412 0H0V17.355h2.95V31.77zm94.01-14.415h2.926v9.603c0 3.208-1.633 4.813-4.9 4.813h-4.902c-3.268 0-4.901-1.605-4.901-4.813v-9.603h2.95v9.224c0 1.537.748 2.317 2.337 2.317h4.107c1.565 0 2.36-.78 2.36-2.317l.022-9.224zM71 23.125c1.612 0 2.451-.49 2.451-1.448s-.817-1.448-2.45-1.448h-6.4v2.897h6.4zM66.1 26h-1.498v5.77h-2.905V17.355H71.5c3.245 0 4.901 1.426 4.901 4.322 0 2.875-1.656 4.323-4.901 4.323h-1l6.853 5.77h-4.402L66.099 26zm16.155 5.77h-2.95V17.355h2.95V31.77zm18.721.023l4.833-14.438h2.927l-4.811 14.438h-2.949zm14.703 0h-2.949l4.81-14.438h2.95l-4.811 14.438zm-8.804 0l4.811-14.438h2.927l-4.811 14.415-2.927.023zm-101.906.044L9.78 17.4h2.95L7.92 31.837H4.97zm14.681 0H16.7L21.512 17.4h2.927l-4.787 14.438zm-8.804 0l4.81-14.438h2.928l-4.81 14.438h-2.928zM43.825 32v-2.92h14.683V32H43.825zm0-8.782h14.683v2.92H43.825v-2.92zm0-5.84h14.683v2.92H43.825v-2.92zM.855 5.48c-.12 0-.184-.02-.192-.061a1.195 1.195 0 01-.012-.205V.555C.659.491.707.46.795.46h1.12c.507 0 .925.084 1.254.253.33.161.57.418.723.772.16.346.24.801.24 1.364 0 .5-.06.917-.18 1.255-.112.33-.273.596-.482.797-.2.201-.434.35-.699.446a2.646 2.646 0 01-.843.133H.855zM.518 8.906V.652A.24.24 0 01.554.507C.586.475.643.459.723.459H1.3c.097 0 .153.032.169.096l.024.097v8.062c0 .064-.016.108-.048.132-.024.025-.105.04-.241.049a12.95 12.95 0 01-.687.012zm.952-4.333h.554c.225 0 .41-.06.554-.181.153-.12.27-.314.35-.58.08-.273.12-.635.12-1.085 0-.282-.028-.527-.084-.737a.883.883 0 00-.301-.494c-.137-.121-.325-.182-.566-.182H1.47v3.259zm4.944 4.454c-.225 0-.441-.02-.65-.06a1.207 1.207 0 01-.543-.23 1.318 1.318 0 01-.385-.554c-.097-.242-.145-.572-.145-.99 0-.418.044-.756.133-1.014.088-.265.209-.466.361-.603a1.15 1.15 0 01.518-.29c.193-.048.39-.072.59-.072.13 0 .278.012.447.036.176.024.325.064.445.12v-.953c0-.193-.032-.338-.096-.434a.45.45 0 00-.253-.218.95.95 0 00-.398-.072 4.718 4.718 0 00-1.602.278.854.854 0 01-.109-.29 1.854 1.854 0 01-.024-.278.75.75 0 01.024-.18.29.29 0 01.109-.145c.104-.065.321-.133.65-.206.33-.08.723-.12 1.181-.12.522 0 .9.108 1.133.326.24.217.361.599.361 1.146v.64c0 .458-.004.921-.012 1.388 0 .458-.004.893-.012 1.303a18.37 18.37 0 01-.048 1.062c-.16.097-.381.19-.663.278a3.394 3.394 0 01-1.012.132zm.097-.82c.128 0 .253-.02.373-.06a.566.566 0 00.253-.145c.016-.13.024-.306.024-.531.008-.226.012-.463.012-.713.008-.249.012-.482.012-.7a.943.943 0 00-.289-.084 1.845 1.845 0 00-.277-.024c-.128 0-.249.016-.361.048a.532.532 0 00-.277.17.851.851 0 00-.193.361 2.302 2.302 0 00-.073.64c0 .217.017.394.049.53a.83.83 0 00.168.327c.073.072.157.12.253.145.097.024.205.036.326.036zm3.825.82c-.249 0-.482-.032-.698-.096a1.475 1.475 0 01-.519-.241c-.128-.113-.192-.234-.192-.363 0-.064.012-.152.036-.265.032-.113.08-.221.144-.326.17.129.358.237.567.326.217.08.43.12.638.12.145 0 .286-.024.422-.072a.766.766 0 00.361-.302c.097-.144.145-.358.145-.64 0-.345-.08-.595-.24-.747-.162-.153-.39-.23-.688-.23H9.83c-.16 0-.24-.088-.24-.265v-.531h1.024c.16-.161.269-.322.325-.483.064-.169.096-.346.096-.531 0-.25-.06-.443-.18-.58-.113-.144-.294-.217-.543-.217-.2 0-.39.045-.566.133-.169.08-.321.177-.458.29a1.528 1.528 0 01-.156-.266.676.676 0 01-.06-.253c0-.097.043-.201.132-.314.096-.113.245-.21.446-.29.2-.088.466-.132.795-.132.53 0 .92.12 1.169.362.249.241.373.571.373.99 0 .297-.06.575-.18.832a1.77 1.77 0 01-.482.652c.297.153.522.35.674.591.153.234.23.555.23.966 0 .305-.045.575-.133.808a1.585 1.585 0 01-.976.954c-.225.08-.486.12-.784.12zm3.267 2.257c-.169 0-.29-.032-.362-.096-.072-.057-.108-.165-.108-.326V3.234c.24-.152.514-.27.82-.35.304-.088.618-.132.939-.132.402 0 .747.072 1.036.217.297.137.526.39.687.76.16.362.24.873.24 1.533 0 .644-.035 1.19-.108 1.641a4.76 4.76 0 01-.289 1.087c-.12.281-.26.498-.421.651a1.303 1.303 0 01-.482.302 1.495 1.495 0 01-.494.084c-.217 0-.41-.032-.579-.096a1.003 1.003 0 01-.373-.241v2.51a2.34 2.34 0 01-.253.06 1.413 1.413 0 01-.253.024zm1.156-3.138a.711.711 0 00.314-.084c.112-.056.22-.177.325-.362.112-.185.2-.463.265-.833.072-.37.108-.869.108-1.496 0-.483-.036-.85-.108-1.099-.064-.257-.165-.43-.301-.519a.876.876 0 00-.518-.144c-.273 0-.518.076-.735.229v3.91c.088.145.188.25.3.314a.772.772 0 00.35.084zm4.493.881c-.225 0-.442-.02-.651-.06a1.207 1.207 0 01-.542-.23 1.319 1.319 0 01-.386-.554c-.096-.242-.144-.572-.144-.99 0-.418.044-.756.132-1.014.088-.265.209-.466.362-.603a1.15 1.15 0 01.518-.29 2.42 2.42 0 01.59-.072c.129 0 .277.012.446.036.177.024.325.064.446.12v-.953c0-.193-.032-.338-.097-.434a.45.45 0 00-.253-.218.95.95 0 00-.397-.072 4.718 4.718 0 00-1.603.278.855.855 0 01-.108-.29 1.849 1.849 0 01-.024-.278c0-.056.008-.116.024-.18a.29.29 0 01.108-.145c.105-.065.322-.133.65-.206.33-.08.724-.12 1.182-.12.522 0 .9.108 1.132.326.241.217.362.599.362 1.146v.64c0 .458-.004.921-.012 1.388 0 .458-.004.893-.012 1.303-.008.402-.024.756-.049 1.062a3.16 3.16 0 01-.662.278 3.394 3.394 0 01-1.012.132zm.096-.82c.129 0 .253-.02.374-.06a.566.566 0 00.253-.145c.016-.13.024-.306.024-.531a20.1 20.1 0 00.012-.713c.008-.249.012-.482.012-.7a.942.942 0 00-.29-.084 1.844 1.844 0 00-.277-.024c-.128 0-.248.016-.361.048a.532.532 0 00-.277.17.852.852 0 00-.193.361 2.307 2.307 0 00-.072.64c0 .217.016.394.048.53a.82.82 0 00.169.327c.072.072.156.12.253.145.096.024.205.036.325.036zm4.416.82c-.482 0-.863-.096-1.145-.29-.273-.2-.465-.546-.578-1.037-.104-.499-.157-1.19-.157-2.076v-1.17c0-.781.045-1.409.133-1.883.088-.475.241-.85.458-1.123.217-.273.522-.487.916-.64L25.51 0c.08.217.133.386.157.507a.5.5 0 01.024.253.369.369 0 01-.12.17.79.79 0 01-.302.156l-1.446.507c-.313.105-.558.254-.735.447-.168.193-.289.45-.361.772-.072.322-.113.74-.12 1.255.16-.458.349-.792.566-1.002.217-.209.526-.313.928-.313.361 0 .662.096.903.29.25.184.434.494.555.929.128.426.192 1.01.192 1.75 0 .788-.076 1.428-.229 1.919-.152.482-.377.836-.674 1.062-.298.217-.66.325-1.085.325zm.012-.832a.739.739 0 00.374-.097.848.848 0 00.289-.362c.08-.177.14-.418.18-.724.049-.314.073-.704.073-1.17 0-.588-.032-1.043-.096-1.364-.057-.33-.145-.56-.265-.688a.61.61 0 00-.482-.206.655.655 0 00-.494.218c-.137.136-.245.37-.326.7-.072.33-.108.784-.108 1.363 0 .644.032 1.135.096 1.473.064.338.16.567.29.688a.688.688 0 00.47.169zm4.551.832a2.58 2.58 0 01-.82-.12 1.152 1.152 0 01-.59-.435c-.16-.217-.28-.53-.361-.941-.08-.418-.12-.966-.12-1.641 0-1.103.176-1.9.53-2.39.353-.499.843-.748 1.47-.748.425 0 .775.088 1.048.265.28.177.49.491.626.942.137.45.205 1.082.205 1.894 0 1.127-.169 1.94-.506 2.438-.337.491-.831.736-1.482.736zm.024-.832c.177 0 .33-.06.458-.181.137-.13.245-.362.325-.7.08-.338.12-.821.12-1.449 0-.643-.031-1.126-.096-1.448-.064-.33-.156-.551-.277-.664a.677.677 0 00-.482-.169.665.665 0 00-.47.194c-.136.12-.244.35-.325.687-.072.338-.108.821-.108 1.449 0 .49.02.889.06 1.194.04.306.092.54.157.7a.635.635 0 00.277.314.907.907 0 00.361.073zm3.629.712v-5.19h-1.314c0-.25.004-.434.012-.555.008-.12.028-.197.06-.23.033-.04.08-.06.145-.06h3.386c0 .25-.004.439-.012.568-.008.12-.028.197-.06.229-.025.032-.073.048-.145.048h-1.096v4.997c0 .064-.013.108-.037.132-.024.025-.104.04-.24.049-.137.008-.37.012-.7.012zm4.427.12c-.225 0-.441-.02-.65-.06a1.207 1.207 0 01-.542-.23 1.318 1.318 0 01-.386-.554c-.096-.242-.145-.572-.145-.99 0-.418.044-.756.133-1.014.088-.265.209-.466.361-.603a1.15 1.15 0 01.519-.29 2.42 2.42 0 01.59-.072c.128 0 .277.012.446.036.176.024.325.064.446.12v-.953c0-.193-.033-.338-.097-.434a.45.45 0 00-.253-.218.95.95 0 00-.398-.072 4.717 4.717 0 00-1.602.278.855.855 0 01-.108-.29 1.849 1.849 0 01-.025-.278c0-.056.008-.116.025-.18a.29.29 0 01.108-.145c.104-.065.321-.133.65-.206.33-.08.724-.12 1.181-.12.523 0 .9.108 1.133.326.241.217.361.599.361 1.146v.64c0 .458-.004.921-.012 1.388 0 .458-.004.893-.012 1.303-.008.402-.024.756-.048 1.062a3.16 3.16 0 01-.663.278 3.395 3.395 0 01-1.012.132zm.097-.82c.128 0 .253-.02.373-.06a.567.567 0 00.253-.145c.016-.13.024-.306.024-.531a20.1 20.1 0 00.012-.713c.009-.249.013-.482.013-.7a.942.942 0 00-.29-.084 1.844 1.844 0 00-.277-.024c-.128 0-.249.016-.361.048a.532.532 0 00-.277.17.852.852 0 00-.193.361 2.307 2.307 0 00-.072.64c0 .217.016.394.048.53.04.138.096.246.168.327.073.072.157.12.253.145.097.024.205.036.326.036zm2.705.7V3.065c0-.064.012-.108.036-.132.024-.024.105-.04.241-.049.145-.008.382-.012.71-.012v2.595h1.58V3.065c0-.064.011-.108.035-.132.033-.024.117-.04.254-.049.144-.008.377-.012.698-.012v5.842c0 .064-.012.108-.036.132-.024.025-.104.04-.24.049a14.07 14.07 0 01-.712.012V6.312h-1.578v2.402c0 .064-.012.108-.036.132-.024.025-.105.04-.241.049-.137.008-.374.012-.711.012zm6.509.12a2.58 2.58 0 01-.82-.12 1.152 1.152 0 01-.59-.435c-.16-.217-.28-.53-.361-.941-.08-.418-.12-.966-.12-1.641 0-1.103.176-1.9.53-2.39.353-.499.843-.748 1.47-.748.425 0 .775.088 1.048.265.281.177.49.491.626.942.137.45.205 1.082.205 1.894 0 1.127-.169 1.94-.506 2.438-.337.491-.831.736-1.482.736zm.024-.832c.177 0 .33-.06.458-.181.137-.13.245-.362.325-.7.08-.338.12-.821.12-1.449 0-.643-.031-1.126-.096-1.448-.064-.33-.156-.551-.277-.664a.677.677 0 00-.482-.169.665.665 0 00-.47.194c-.136.12-.245.35-.325.687-.072.338-.108.821-.108 1.449 0 .49.02.889.06 1.194.04.306.092.54.157.7a.635.635 0 00.277.314.907.907 0 00.361.073zm4.738.712V3.065c0-.056.02-.1.06-.132.048-.04.136-.06.265-.06h1.108c.314 0 .615.036.904.108.29.064.526.197.711.398.185.193.277.491.277.893 0 .258-.04.48-.12.664-.08.185-.177.334-.29.447a1.188 1.188 0 01-.337.241.876.876 0 01-.277.097c.064.008.129.02.193.036.072.008.136.02.193.036.048.016.116.044.204.084a.935.935 0 01.302.182c.104.08.192.197.265.35.08.144.12.337.12.579 0 .362-.076.688-.229.977a1.65 1.65 0 01-.699.688c-.313.17-.715.254-1.205.254H50.48zm1.458-.797c.32 0 .57-.096.747-.29.184-.193.277-.49.277-.893a1 1 0 00-.097-.47.524.524 0 00-.289-.266c-.136-.056-.325-.084-.566-.084-.12 0-.233.004-.337.012a3.09 3.09 0 01-.254.012v1.967c.08.008.17.012.266.012h.253zm-.519-2.667c.08.008.161.012.241.012h.266a.928.928 0 00.421-.096.737.737 0 00.313-.314c.089-.153.133-.354.133-.604 0-.193-.028-.342-.084-.446a.475.475 0 00-.205-.242.564.564 0 00-.29-.096 4.724 4.724 0 00-.337-.012h-.217c-.064 0-.12.004-.168.012h-.073v1.786zM132 12.995c0 2.38-1.819 4.248-4.206 4.248a4.212 4.212 0 01-4.228-4.248c0-2.333 1.864-4.2 4.228-4.2 2.387 0 4.206 1.867 4.206 4.2zm-7.366 0c0 1.867 1.342 3.36 3.206 3.36 1.796 0 3.114-1.493 3.114-3.336 0-1.867-1.318-3.384-3.137-3.384-1.841 0-3.183 1.517-3.183 3.36zm2.524 2.194h-.955v-4.2c.364-.07.909-.117 1.568-.117.773 0 1.114.116 1.433.303.227.187.409.513.409.933 0 .467-.341.817-.841.98v.047c.409.164.614.467.75 1.027.114.63.205.887.296 1.05h-1.023c-.114-.163-.205-.536-.319-1.026-.068-.467-.318-.677-.841-.677h-.455l-.022 1.68zm.022-2.38h.455c.523 0 .955-.187.955-.607 0-.373-.273-.63-.864-.63-.25 0-.432.023-.523.046v1.19h-.023z" fill="#333"/></svg><svg fill="none" viewBox="0 0 45 63" id="sprite--lightning" xmlns="http://www.w3.org/2000/svg"><path d="M35.27.326c-.344-.18-.737-.191-1.123-.191-.41 0-.789.257-1.073.558L1.482 34.161c-.246.26-.473.587-.473.94s-.02.717.123 1.046a1.836 1.836 0 001.69 1.107h13.3l.003.004L8.96 60.472c0 .397-.107.823.045 1.209.15.386.429.71.788.919.36.208.78.23 1.19.23.412 0 .791-.257 1.076-.56l31.592-33.467c.246-.26.473-.587.473-.94s.02-.717-.123-1.046a1.836 1.836 0 00-1.69-1.107h-13.3l-.003-.004 7.164-23.21c0-.397.107-.824-.044-1.21-.152-.387-.498-.752-.858-.96z" stroke="#0178F3" stroke-linecap="round" stroke-linejoin="round"/></svg><svg fill="none" viewBox="0 0 62 30" id="sprite--logo" xmlns="http://www.w3.org/2000/svg"><path fill-rule="evenodd" clip-rule="evenodd" d="M36.394 0H62l-6.125 12.975-8.061 1.69 6.204 2.124-2.608 5.505C49.197 26.697 42.282 30 33.312 30H0l5.256-11.049 12.842 3.382h18.889l1.62-3.381H19.718L7.271 14.665l16.043-3.382h18.889l1.62-3.38H24.934l-16.003 3.38c.118-.275.513-1.1 1.62-3.38C12.684 3.42 19.639.038 28.728.038L36.394 0z" fill="#D8D8D8"/></svg><svg viewBox="0 0 122.88 122.267" id="sprite--phone" xmlns="http://www.w3.org/2000/svg"><path d="M33.822 50.291c4.137 7.442 8.898 14.604 15.074 21.133 6.204 6.56 13.886 12.538 23.875 17.606l.01.005.002-.005a2.466 2.466 0 002.072.118c.944-.353 1.927-1.137 2.883-2.086.729-.726 1.643-1.924 2.631-3.223 3.846-5.054 8.601-11.301 15.314-8.193.142.065.276.141.402.226l22.373 12.852c.08.046.157.095.23.147 2.966 2.036 4.177 5.172 4.19 8.683.014 3.621-1.329 7.674-3.274 11.101-2.565 4.517-6.387 7.502-10.761 9.525-4.17 1.928-8.798 2.954-13.267 3.608-6.989 1.025-13.578.374-20.288-1.692-6.55-2.017-13.176-5.385-20.4-9.86l-.526-.326c-3.326-2.06-6.906-4.276-10.389-6.904-12.865-9.71-25.966-23.723-34.461-39.102C2.361 50.958-1.552 36.995.581 23.681 1.75 16.375 4.901 9.743 10.333 5.35 15.095 1.497 21.521-.59 29.781.147a2.908 2.908 0 012.255 1.419l.006-.003 14.324 24.27c2.11 2.718 2.344 5.415 1.203 8.096-.943 2.218-2.892 4.251-5.476 6.168-.786.65-1.708 1.325-2.659 2.021-3.198 2.341-6.856 5.018-5.612 8.173zM44.67 75.422C38.066 68.44 33.035 60.88 28.695 53.065a2.872 2.872 0 01-.202-.39c-3.174-7.459 2.52-11.625 7.493-15.262.845-.618 1.663-1.217 2.401-1.829l.002.003c.043-.036.088-.071.135-.105 1.843-1.354 3.171-2.647 3.678-3.837.289-.679.182-1.426-.466-2.265a2.968 2.968 0 01-.303-.423L27.795 5.852c-5.869-.241-10.419 1.321-13.784 4.044-4.239 3.429-6.723 8.759-7.674 14.699-1.905 11.894 1.716 24.594 8.292 36.5 8.078 14.623 20.575 27.977 32.864 37.25 3.379 2.55 6.776 4.653 9.932 6.607l.526.326c6.818 4.223 13.017 7.386 19.052 9.244 5.876 1.809 11.634 2.38 17.729 1.486 4.009-.587 8.113-1.485 11.668-3.129 3.351-1.55 6.248-3.785 8.134-7.104 1.496-2.637 2.53-5.653 2.521-8.222-.006-1.63-.472-3.029-1.605-3.844L93.2 80.93c-2.461-1.081-5.629 3.081-8.193 6.45-1.104 1.452-2.125 2.792-3.156 3.817-1.477 1.466-3.118 2.723-4.962 3.411-2.136.799-4.395.834-6.755-.37l.002-.004C59.522 88.849 51.323 82.457 44.67 75.422z"/></svg><svg fill="none" viewBox="0 0 21 23" id="sprite--play" xmlns="http://www.w3.org/2000/svg"><path d="M19.775 10.856a.744.744 0 010 1.289L1.917 22.455a.744.744 0 01-1.116-.645V1.19c0-.572.62-.93 1.116-.644l17.858 10.31z" fill="#F5F5F5"/></svg><svg fill="none" viewBox="0 0 57 57" id="sprite--sale" xmlns="http://www.w3.org/2000/svg"><path d="M23.863 2.657c2.402-2.93 6.872-2.93 9.273 0l3.062 3.735a6.915 6.915 0 005.243 2.534l4.82.072c3.78.057 6.569 3.564 5.782 7.277l-1.002 4.73a6.96 6.96 0 001.295 5.69l2.948 3.827c2.314 3.002 1.318 7.377-2.063 9.074L48.91 41.76a6.94 6.94 0 00-3.628 4.564l-1.143 4.698c-.897 3.687-4.926 5.631-8.355 4.038l-4.374-2.033a6.903 6.903 0 00-5.82 0l-4.374 2.033c-3.43 1.593-7.458-.351-8.355-4.038l-1.143-4.698A6.94 6.94 0 008.09 41.76l-4.31-2.164C.397 37.9-.599 33.524 1.715 30.522l2.948-3.826a6.96 6.96 0 001.294-5.69l-1.001-4.73c-.787-3.714 2.003-7.22 5.782-7.278l4.82-.072a6.915 6.915 0 005.243-2.534l3.061-3.735z" stroke="#F64F00" stroke-width=".919"/><path d="M19.741 26.423l.007.004.006.003c.85.44 1.787.656 2.8.656 1.012 0 1.94-.217 2.773-.658h0l.003-.002c.842-.456 1.517-1.06 2.014-1.814h0l.003-.005c.5-.78.75-1.642.75-2.575a4.54 4.54 0 00-.753-2.55c-.497-.754-1.173-1.348-2.016-1.785-.832-.462-1.76-.689-2.775-.689s-1.954.228-2.805.69a5.323 5.323 0 00-1.985 1.784l.371.245-.371-.245a4.54 4.54 0 00-.754 2.55c0 .933.25 1.795.75 2.575h0l.004.005a5.576 5.576 0 001.978 1.811zm-.862 11.085l-.3.344.342.302 1.85 1.632.364.322.3-.382 8.253-10.48 8.437-9.785.299-.347-.346-.3-1.88-1.633-.367-.319-.297.385-8.005 10.326-8.65 9.935zm12.788 1.821h0l.008.005c.833.441 1.761.658 2.774.658 1.012 0 1.94-.217 2.773-.658h0l.003-.002c.842-.456 1.517-1.06 2.014-1.813a4.54 4.54 0 00.754-2.55 4.54 4.54 0 00-.752-2.548 5.177 5.177 0 00-2.017-1.817c-.833-.462-1.762-.69-2.775-.69-1.015 0-1.944.228-2.778.69a5.478 5.478 0 00-2.011 1.811l-.002.003a4.54 4.54 0 00-.754 2.55c0 .934.251 1.788.754 2.55h0l.005.008a5.855 5.855 0 002.004 1.803zm3.973-2.877h0l-.007.009c-.329.404-.715.587-1.184.587-.446 0-.837-.18-1.192-.596a2.195 2.195 0 01-.537-1.484c0-.58.18-1.067.537-1.484h0l.006-.007c.357-.434.747-.618 1.186-.618.445 0 .836.18 1.191.595.356.415.537.911.537 1.514 0 .58-.18 1.067-.537 1.484zM23.742 23.55c-.354.412-.744.591-1.189.591-.445 0-.836-.18-1.191-.595-.356-.415-.537-.911-.537-1.514 0-.58.18-1.067.537-1.485.355-.414.746-.595 1.191-.595.446 0 .837.18 1.192.595.358.418.537.905.537 1.485 0 .578-.179 1.078-.54 1.518z" stroke="#F64F00" stroke-width=".919"/></svg><svg fill="none" viewBox="0 0 26 26" id="sprite--search" xmlns="http://www.w3.org/2000/svg"><path clip-rule="evenodd" d="M11.917 20.583a8.667 8.667 0 100-17.333 8.667 8.667 0 000 17.333z" stroke="#BCBCBC" stroke-linecap="round" stroke-linejoin="round"/><path d="M22.752 22.75l-4.713-4.712" stroke="#BCBCBC" stroke-linecap="round" stroke-linejoin="round"/></svg><svg fill="none" viewBox="0 0 26 26" id="sprite--shopoing-cart" xmlns="http://www.w3.org/2000/svg"><path clip-rule="evenodd" d="M10 23a2 2 0 100-4 2 2 0 000 4zm10 0a2 2 0 100-4 2 2 0 000 4z" stroke="#F5F5F5" stroke-linecap="round" stroke-linejoin="round"/><path d="M7.245 7.333H23l-1.527 7.271c-.172.824-.938 1.412-1.819 1.396h-9.608c-.92.007-1.7-.64-1.819-1.508L6.845 4.508c-.118-.862-.888-1.507-1.8-1.508H3" stroke="#F5F5F5" stroke-linecap="round" stroke-linejoin="round"/></svg><svg fill="none" viewBox="0 0 8 14" id="sprite--slide-next" xmlns="http://www.w3.org/2000/svg"><path d="M1.002 13l6-6-6-6" stroke="#BCBCBC" stroke-linecap="round" stroke-linejoin="round"/></svg><svg fill="none" viewBox="0 0 8 14" id="sprite--slide-prev" xmlns="http://www.w3.org/2000/svg"><path d="M7 1L1 7l6 6" stroke="#BCBCBC" stroke-linecap="round" stroke-linejoin="round"/></svg><svg fill="none" viewBox="0 0 21 19" id="sprite--tg" xmlns="http://www.w3.org/2000/svg"><path d="M.797 8.677l-.008-.003L.78 8.67c-.005-.002-.006-.002-.009-.007a.11.11 0 01-.013-.056.11.11 0 01.013-.056c.003-.005.004-.006.01-.008l.01-.004.012-.004 17.893-7.141L16.642 3.4 6.698 9.607c-.65.297-.872 1.076-.554 1.701l.943 3.567a.787.787 0 00.303.457c.155.111.334.15.498.134.298-.028.643-.263.662-.677l.237-1.957.004-.03v-.03c0-.21.122-.417.334-.637l8.146-7.951a.82.82 0 00.053-.043l.003-.002a18.797 18.797 0 00.447-.405 69.885 69.885 0 001.725-1.685c.107-.109.198-.204.259-.27.025-.029.062-.07.09-.11a.59.59 0 00.069-.128.507.507 0 00-.146-.558.559.559 0 00-.014-.012l.467-.186a.125.125 0 01.042.057c.005.017.005.03.004.041v.001l-3.517 17.314h0v.005a.05.05 0 01-.011.025.048.048 0 01-.02.012.052.052 0 01-.052-.008h0l-.005-.004-4.714-3.544c-.462-.356-1.143-.422-1.601.03l-2.61 2.203a.165.165 0 01-.08.03l-.002-.006-.007-.025-1.839-6.102-.07-.235-.229-.088L.797 8.677z" stroke="#7D7D7D"/></svg><svg fill="none" viewBox="0 0 26 26" id="sprite--user" xmlns="http://www.w3.org/2000/svg"><path d="M21.67 22.75v-2.167a4.333 4.333 0 00-4.334-4.333H8.669a4.333 4.333 0 00-4.333 4.333v2.167" stroke="#BCBCBC" stroke-linecap="round" stroke-linejoin="round"/><path clip-rule="evenodd" d="M12.997 11.917a4.333 4.333 0 100-8.667 4.333 4.333 0 000 8.667z" stroke="#BCBCBC" stroke-linecap="round" stroke-linejoin="round"/></svg><svg fill="none" viewBox="0 0 24 16" id="sprite--vk" xmlns="http://www.w3.org/2000/svg"><path clip-rule="evenodd" d="M22.04 2.258c.16-.522 0-.901-.708-.901h-2.35c-.592 0-.866.332-1.026.688 0 0-1.209 3.037-2.897 5.006-.547.57-.798.759-1.095.759-.16 0-.365-.19-.365-.712V2.235c0-.617-.182-.902-.684-.902H9.22a.576.576 0 00-.593.57c0 .593.844.735.935 2.396v3.606c0 .783-.137.925-.434.925-.798 0-2.737-3.06-3.9-6.548-.228-.688-.456-.949-1.05-.949H1.807c-.684 0-.798.332-.798.688 0 .64.798 3.867 3.718 8.138 1.939 2.918 4.699 4.484 7.185 4.484 1.506 0 1.688-.356 1.688-.95v-2.206c0-.712.137-.83.616-.83.342 0 .958.19 2.35 1.59 1.597 1.66 1.87 2.42 2.76 2.42h2.35c.684 0 1.003-.357.82-1.044-.205-.689-.98-1.685-1.984-2.871-.547-.665-1.369-1.4-1.62-1.756-.342-.474-.25-.664 0-1.091-.022 0 2.852-4.223 3.148-5.647z" stroke="#7D7D7D"/></svg><svg fill="none" viewBox="0 0 1098 119" id="sprite--zaryad" xmlns="http://www.w3.org/2000/svg"><path d="M569.689 1h99.834l-20.922 44.316c-8.921 16.867-35.532 29.441-70.143 29.441H504.93l-20.46 43.09h-56.3l34.611-72.991h129.83l6.305-13.188H469.241C477.548 14.188 504.621 1 540 1h29.689zm313.495 0H753.509c-35.38 0-62.452 13.188-70.759 30.668h129.675l-6.308 13.188H676.445l-14.153 29.901h56.147l-94.143 43.09h95.833l65.685-30.209-14.305 30.209c34.608 0 61.222-12.574 70.143-29.442l20.612-43.549 6.308-13.188 3.537-7.667L883.184 1zM142.673 1h99.678l-23.843 50.603-31.38 6.593 24.15 8.28-10.152 21.469C192.512 105.119 165.592 118 130.674 118H1l20.459-43.089 49.993 13.187h73.528l6.307-13.187H77.759L29.304 58.196 91.756 45.01h73.529l6.306-13.187H98.063L35.764 45.009c.462-1.073 2-4.293 6.307-13.187C50.378 14.34 77.451 1.154 112.83 1.154L142.673 1zm712.822 116.847l34.611-72.991h56.299l-20.303 43.089h73.528l26.61-56.277H896.569C907.644 10.508 938.101 1 967.325 1H1097l-41.23 86.945h27.54c-8.62 17.021-35.53 29.902-70.45 29.902H855.495zm-640.986 0l34.61-72.838h129.828l6.308-13.187H255.426c8.306-17.481 35.379-30.668 70.758-30.668h129.675l-34.611 72.99s2-4.14-6.304 13.188c-8.307 17.48-35.38 30.515-70.608 30.668l20.458-43.089h-73.527L270.808 118h-56.299v-.153z" stroke="#333"/></svg></svg>